<svg xmlns="http://www.w3.org/2000/svg" version="1.2" viewBox="0 0 336 336" width="336" height="336">
	<title>noun-tick-1157232-svg</title>
	<style>
		.s0 { fill: #ededed } 
	</style>
	<g id="Layer">
		<path id="Layer" class="s0" d="m145.9 282.2c-10.5 0-20.7-3.4-29.1-9.8l-78.7-59.7c-4.4-3.4-6.6-8.8-5.9-14.3 0.7-5.5 4.3-10.2 9.3-12.3 5.1-2.2 10.9-1.5 15.4 1.8l78.7 59.7c3.7 2.9 8.5 4 13.1 3.2 4.6-0.7 8.7-3.4 11.2-7.3l127.5-191.1c3-4.6 8.4-7.2 13.9-6.9 5.6 0.4 10.5 3.7 13 8.7 2.4 4.9 2.1 10.9-1 15.5l-127.5 191.1c-7.3 11-18.9 18.5-32 20.7q-3.9 0.7-7.9 0.7z" fill="#ededed"/>
		<g id="t">
			<path id="Layer" class="s0" d="m-82.2 543.1q-1.6 0.8-3.3 1.2-1.8 0.5-3.7 0.5-5.6 0-8.9-3.2-3.4-3.2-3.4-8.6 0-5.4 3.4-8.6 3.3-3.2 8.9-3.2 1.9 0 3.7 0.5 1.7 0.4 3.3 1.2v4.7q-1.6-1.1-3.2-1.6-1.5-0.5-3.3-0.5-3.1 0-4.9 2-1.8 2-1.8 5.5 0 3.5 1.8 5.5 1.8 2 4.9 2 1.8 0 3.3-0.5 1.6-0.5 3.2-1.6z" fill="#ededed"/>
		</g>
		<g id="c">
			<path id="Layer" class="s0" d="m-64.9 532q-0.7-0.4-1.4-0.5-0.7-0.2-1.5-0.2-2.1 0-3.2 1.3-1.1 1.4-1.1 3.9v7.8h-5.5v-17h5.5v2.8q1-1.7 2.4-2.4 1.3-0.8 3.3-0.8 0.2 0 0.5 0 0.4 0.1 1 0.1z" fill="#ededed"/>
		</g>
		<g id="a">
			<path id="Layer" fill-rule="evenodd" class="s0" d="m-45.2 535.8v1.5h-12.7q0.2 1.9 1.3 2.9 1.2 1 3.4 1 1.7 0 3.5-0.5 1.8-0.6 3.7-1.6v4.2q-2 0.7-3.9 1.1-1.9 0.4-3.8 0.4-4.7 0-7.2-2.4-2.6-2.3-2.6-6.6 0-4.1 2.5-6.5 2.5-2.4 6.9-2.4 4.1 0 6.5 2.4 2.4 2.4 2.4 6.5zm-5.6-1.8q0-1.6-0.9-2.5-0.9-1-2.4-1-1.6 0-2.6 0.9-0.9 0.9-1.2 2.6z" fill="#ededed"/>
		</g>
		<g id="i">
			<path id="Layer" fill-rule="evenodd" class="s0" d="m-25.2 534.6v9.7h-5.5v-2.5q-1.1 1.6-2.4 2.3-1.4 0.7-3.3 0.7-2.7 0-4.3-1.6-1.7-1.5-1.7-4 0-3 2.1-4.4 2-1.4 6.4-1.4h3.2v-0.4q0-1.3-1-1.9-1-0.6-3.2-0.6-1.7 0-3.2 0.4-1.5 0.3-2.8 1v-4.1q1.7-0.5 3.5-0.7 1.8-0.2 3.5-0.2 4.6 0 6.7 1.8 2 1.8 2 5.9zm-8.3 2.1q-1.7 0-2.6 0.6-0.8 0.5-0.8 1.7 0 1 0.7 1.6 0.7 0.6 1.9 0.6 1.5 0 2.6-1.1 1-1.1 1-2.8v-0.6z" fill="#ededed"/>
		</g>
		<g id="b">
			<path id="Layer" class="s0" d="m-14.2 522.5v4.8h5.6v3.9h-5.6v7.2q0 1.2 0.5 1.6 0.5 0.4 1.9 0.4h2.8v3.9h-4.7q-3.2 0-4.6-1.3-1.3-1.4-1.3-4.6v-7.2h-2.7v-3.9h2.7v-4.8z" fill="#ededed"/>
		</g>
		<g id="a">
			<path id="Layer" fill-rule="evenodd" class="s0" d="m11.7 535.8v1.5h-12.7q0.2 1.9 1.4 2.9 1.2 1 3.3 1 1.7 0 3.5-0.5 1.8-0.6 3.7-1.6v4.2q-1.9 0.7-3.8 1.1-2 0.4-3.9 0.4-4.6 0-7.2-2.4-2.5-2.3-2.5-6.6 0-4.1 2.5-6.5 2.5-2.4 6.9-2.4 4 0 6.4 2.4 2.4 2.4 2.4 6.5zm-5.6-1.8q0-1.6-0.9-2.5-0.9-1-2.3-1-1.6 0-2.6 0.9-1 0.9-1.2 2.6z" fill="#ededed"/>
		</g>
		<g id="h">
			<path id="Layer" fill-rule="evenodd" class="s0" d="m27.4 529.8v-9.1h5.5v23.6h-5.5v-2.4q-1.1 1.5-2.5 2.2-1.3 0.7-3.1 0.7-3.1 0-5.2-2.5-2-2.5-2-6.5 0-3.9 2-6.4 2.1-2.5 5.2-2.5 1.8 0 3.1 0.7 1.4 0.7 2.5 2.2zm-3.5 11q1.7 0 2.6-1.2 0.9-1.3 0.9-3.8 0-2.4-0.9-3.7-0.9-1.2-2.6-1.2-1.8 0-2.7 1.2-0.9 1.3-0.9 3.7 0 2.5 0.9 3.8 0.9 1.2 2.7 1.2z" fill="#ededed"/>
		</g>
		<g id="g">
			<path id="Layer" fill-rule="evenodd" class="s0" d="m54.4 529.8q1.1-1.5 2.5-2.2 1.3-0.7 3.1-0.7 3.2 0 5.2 2.5 2 2.5 2 6.4 0 4-2 6.5-2 2.5-5.2 2.5-1.8 0-3.1-0.7-1.4-0.7-2.5-2.2v2.4h-5.4v-23.6h5.4zm3.6 11q1.7 0 2.7-1.3 0.9-1.3 0.9-3.7 0-2.4-0.9-3.7-1-1.3-2.7-1.3-1.7 0-2.7 1.3-0.9 1.3-0.9 3.7 0 2.4 0.9 3.7 1 1.3 2.7 1.3z" fill="#ededed"/>
		</g>
		<g id="f">
			<path id="Layer" class="s0" d="m69 527.3h5.4l4.6 11.6 3.9-11.6h5.4l-7.1 18.6q-1.1 2.9-2.5 4-1.5 1.1-3.8 1.2h-3.2v-3.6h1.7q1.4 0 2-0.5 0.7-0.4 1-1.5l0.2-0.5z" fill="#ededed"/>
		</g>
		<g id="e">
			<path id="Layer" class="s0" d="m102.6 521.7h7.4l5.2 12.1 5.2-12.1h7.4v22.6h-5.5v-16.6l-5.2 12.3h-3.8l-5.2-12.3v16.6h-5.5z" fill="#ededed"/>
		</g>
		<g id="s">
			<path id="Layer" class="s0" d="m133.5 521.7h15.8v4.4h-9.9v4.2h9.3v4.4h-9.3v5.2h10.3v4.4h-16.2z" fill="#ededed"/>
		</g>
		<g id="r">
			<path id="Layer" class="s0" d="m-89.2 551.8v3.6h-3q-1.2 0-1.6 0.4-0.5 0.4-0.5 1.4v1.2h4.7v3.9h-4.7v13.1h-5.4v-13.1h-2.7v-3.9h2.7v-1.2q0-2.7 1.5-4.1 1.6-1.3 4.8-1.3z" fill="#ededed"/>
		</g>
		<g id="c">
			<path id="Layer" class="s0" d="m-74.2 563.1q-0.7-0.4-1.4-0.5-0.7-0.2-1.5-0.2-2.1 0-3.2 1.4-1.1 1.3-1.1 3.8v7.8h-5.5v-17h5.5v2.8q1-1.6 2.4-2.4 1.3-0.8 3.3-0.8 0.2 0 0.5 0.1 0.4 0 1 0z" fill="#ededed"/>
		</g>
		<g id="d">
			<path id="Layer" fill-rule="evenodd" class="s0" d="m-63.4 558q4.4 0 6.8 2.4 2.5 2.4 2.5 6.6 0 4.2-2.5 6.5-2.4 2.4-6.8 2.4-4.4 0-6.9-2.4-2.5-2.3-2.5-6.5 0-4.2 2.5-6.6 2.5-2.4 6.9-2.4zm0 3.9q-1.8 0-2.8 1.3-0.9 1.3-0.9 3.8 0 2.4 0.9 3.7 1 1.3 2.8 1.3 1.8 0 2.7-1.3 1-1.3 1-3.7 0-2.5-1-3.8-0.9-1.3-2.7-1.3z" fill="#ededed"/>
		</g>
		<g id="q">
			<path id="Layer" class="s0" d="m-34.4 561.3q1.1-1.6 2.5-2.4 1.4-0.9 3.1-0.9 2.9 0 4.5 1.8 1.5 1.8 1.5 5.3v10.3h-5.5v-8.8q0-0.2 0-0.4 0.1-0.3 0.1-0.6 0-1.9-0.6-2.7-0.5-0.8-1.7-0.8-1.5 0-2.4 1.3-0.8 1.3-0.9 3.7v8.3h-5.4v-8.8q0-2.9-0.5-3.7-0.5-0.8-1.7-0.8-1.6 0-2.5 1.3-0.8 1.3-0.8 3.7v8.3h-5.5v-17h5.5v2.5q1-1.4 2.3-2.1 1.3-0.8 2.9-0.8 1.7 0 3.1 0.9 1.3 0.8 2 2.4z" fill="#ededed"/>
		</g>
		<g id="b">
			<path id="Layer" class="s0" d="m-1 553.6v4.8h5.7v3.9h-5.7v7.2q0 1.2 0.5 1.6 0.5 0.5 1.9 0.5h2.8v3.8h-4.7q-3.2 0-4.5-1.3-1.4-1.3-1.4-4.6v-7.2h-2.7v-3.9h2.7v-4.8z" fill="#ededed"/>
		</g>
		<g id="p">
			<path id="Layer" class="s0" d="m25.1 565.1v10.3h-5.5v-7.9q0-2.2-0.1-3-0.1-0.8-0.3-1.3-0.3-0.5-0.9-0.8-0.5-0.3-1.2-0.3-1.7 0-2.7 1.3-1 1.4-1 3.7v8.3h-5.4v-23.6h5.4v9.1q1.2-1.5 2.6-2.2 1.4-0.7 3.1-0.7 2.9 0 4.5 1.8 1.5 1.8 1.5 5.3z" fill="#ededed"/>
		</g>
		<g id="a">
			<path id="Layer" fill-rule="evenodd" class="s0" d="m47.1 566.9v1.5h-12.7q0.2 2 1.4 2.9 1.2 1 3.3 1 1.7 0 3.5-0.5 1.8-0.5 3.7-1.6v4.2q-1.9 0.8-3.9 1.1-1.9 0.4-3.8 0.4-4.6 0-7.2-2.4-2.5-2.3-2.5-6.5 0-4.2 2.5-6.6 2.5-2.4 6.9-2.4 4 0 6.4 2.4 2.4 2.5 2.4 6.5zm-5.6-1.8q0-1.6-0.9-2.5-0.9-1-2.3-1-1.6 0-2.6 0.9-1 0.9-1.2 2.6z" fill="#ededed"/>
		</g>
		<g id="o">
			<path id="Layer" class="s0" d="m62.3 552.8h6.5l8.3 15.5v-15.5h5.5v22.6h-6.5l-8.2-15.5v15.5h-5.6z" fill="#ededed"/>
		</g>
		<g id="d">
			<path id="Layer" fill-rule="evenodd" class="s0" d="m96.2 558q4.4 0 6.9 2.4 2.4 2.4 2.4 6.6 0 4.2-2.4 6.5-2.5 2.4-6.9 2.4-4.4 0-6.9-2.4-2.5-2.3-2.5-6.5 0-4.2 2.5-6.6 2.5-2.4 6.9-2.4zm0 3.9q-1.8 0-2.8 1.3-0.9 1.3-0.9 3.8 0 2.4 0.9 3.7 1 1.3 2.8 1.3 1.8 0 2.7-1.3 1-1.3 1-3.7 0-2.5-1-3.8-0.9-1.3-2.7-1.3z" fill="#ededed"/>
		</g>
		<g id="n">
			<path id="Layer" class="s0" d="m109.3 568.8v-10.4h5.5v1.7q0 1.4 0 3.5-0.1 2.1-0.1 2.8 0 2 0.1 3 0.1 0.9 0.4 1.3 0.3 0.5 0.9 0.8 0.5 0.3 1.2 0.3 1.7 0 2.7-1.3 1-1.3 1-3.7v-8.4h5.4v17h-5.4v-2.4q-1.3 1.5-2.7 2.2-1.3 0.7-3 0.7-2.9 0-4.5-1.8-1.5-1.8-1.5-5.3z" fill="#ededed"/>
		</g>
		<g id="m">
			<path id="Layer" class="s0" d="m148.7 565.1v10.3h-5.4v-7.9q0-2.2-0.1-3-0.1-0.8-0.4-1.3-0.3-0.5-0.9-0.8-0.5-0.3-1.2-0.3-1.7 0-2.7 1.3-0.9 1.4-0.9 3.7v8.3h-5.5v-17h5.5v2.5q1.2-1.5 2.6-2.2 1.4-0.7 3-0.7 3 0 4.5 1.8 1.5 1.8 1.5 5.3z" fill="#ededed"/>
		</g>
		<g id="l">
			<path id="Layer" fill-rule="evenodd" class="s0" d="m164.9 552.8h9.7q4.3 0 6.6 1.9 2.3 1.9 2.3 5.5 0 3.5-2.3 5.4-2.3 2-6.6 2h-3.9v7.8h-5.8zm5.8 4.3v6.3h3.2q1.7 0 2.7-0.8 0.9-0.8 0.9-2.4 0-1.5-0.9-2.3-1-0.8-2.7-0.8z" fill="#ededed"/>
		</g>
		<g id="c">
			<path id="Layer" class="s0" d="m200 563.1q-0.7-0.4-1.4-0.5-0.7-0.2-1.4-0.2-2.1 0-3.2 1.4-1.2 1.3-1.2 3.8v7.8h-5.4v-17h5.4v2.8q1.1-1.6 2.4-2.4 1.4-0.8 3.3-0.8 0.3 0 0.6 0.1 0.3 0 0.9 0z" fill="#ededed"/>
		</g>
		<g id="d">
			<path id="Layer" fill-rule="evenodd" class="s0" d="m210.8 558q4.4 0 6.9 2.4 2.5 2.4 2.5 6.6 0 4.2-2.5 6.5-2.5 2.4-6.9 2.4-4.4 0-6.9-2.4-2.4-2.3-2.4-6.5 0-4.2 2.4-6.6 2.5-2.4 6.9-2.4zm0 3.9q-1.8 0-2.7 1.3-1 1.3-1 3.8 0 2.4 1 3.7 0.9 1.3 2.7 1.3 1.8 0 2.8-1.3 0.9-1.3 0.9-3.7 0-2.5-0.9-3.8-1-1.3-2.8-1.3z" fill="#ededed"/>
		</g>
		<g id="k">
			<path id="Layer" class="s0" d="m224.1 558.4h5.5v16.7q0 3.5-1.7 5.3-1.6 1.8-4.7 1.8h-2.7v-3.6h0.9q1.6 0 2.1-0.7 0.6-0.7 0.6-2.8zm0-6.6h5.5v4.5h-5.5z" fill="#ededed"/>
		</g>
		<g id="a">
			<path id="Layer" fill-rule="evenodd" class="s0" d="m251.8 566.9v1.5h-12.8q0.2 2 1.4 2.9 1.2 1 3.3 1 1.8 0 3.6-0.5 1.8-0.5 3.7-1.6v4.2q-2 0.8-3.9 1.1-1.9 0.4-3.9 0.4-4.6 0-7.1-2.4-2.6-2.3-2.6-6.5 0-4.2 2.5-6.6 2.5-2.4 6.9-2.4 4.1 0 6.5 2.4 2.4 2.5 2.4 6.5zm-5.6-1.8q0-1.6-0.9-2.5-0.9-1-2.4-1-1.6 0-2.6 0.9-0.9 0.9-1.2 2.6z" fill="#ededed"/>
		</g>
		<g id="j">
			<path id="Layer" class="s0" d="m269.6 559v4.4q-1.1-0.8-2.2-1.1-1.1-0.4-2.3-0.4-2.3 0-3.6 1.3-1.2 1.4-1.2 3.8 0 2.3 1.2 3.7 1.3 1.3 3.6 1.3 1.3 0 2.4-0.4 1.2-0.4 2.1-1.1v4.4q-1.2 0.5-2.6 0.7-1.3 0.3-2.6 0.3-4.6 0-7.2-2.4-2.6-2.3-2.6-6.5 0-4.3 2.6-6.6 2.6-2.4 7.2-2.4 1.3 0 2.6 0.3 1.3 0.2 2.6 0.7z" fill="#ededed"/>
		</g>
		<g id="b">
			<path id="Layer" class="s0" d="m280.3 553.6v4.8h5.6v3.9h-5.6v7.2q0 1.2 0.4 1.6 0.5 0.5 1.9 0.5h2.8v3.8h-4.7q-3.2 0-4.5-1.3-1.4-1.3-1.4-4.6v-7.2h-2.7v-3.9h2.7v-4.8z" fill="#ededed"/>
		</g>
	</g>
</svg>